<svg viewBox="-50 -50 100 100" xmlns="http://www.w3.org/2000/svg">
    <path fill="paleturquoise" stroke="darkcyan" d="
        M 29,-29
        L 18,-10
          27,-10
          18,-1.5
          25,4
          18,5
          27,26
          13,21
          6,29
          0,19
          -28,28
          -17,14
          -27,12.5
          0,-12
        Z
    "/>
    <path fill="silver" stroke="midnightblue" d="
        M 8,-28
        L 11,0
          28,8
          28,11
          -2,28
          -24,12
          -28,-25
        Z
    "/>
    <path stroke="midnightblue" d="
        M -2,25
        L -20,12
        Z
    "/>
    <path fill="midnightblue" stroke="blue" d="
        M 6,-25
        L 8,0
          -20,7
          -24,-22
        Z
    "/>
    <path fill="darkgrey" stroke="dimgrey" d="
        M 9,2
        L 24.5,10.5
          0,22
          -18,10
        Z
    "/>
    <path fill="dimgrey" stroke="dimgrey" d="
        M 15,11
        L 17,12
          8,16
          5.5,15
        Z
    "/>
    <path fill="paleturquoise" stroke="midnightblue" d="
        M -1,8
        L -8,1
        Q -1,-13 7,-1
        Z
        M -15,-3
        Q -1,-30 13,-7
        L 10,-5
        Q -1,-23 -11,-1
        Z
        M -21,-8
        Q -1,-44 18,-15
        L 15,-13
        Q -1,-33 -17,-6
        Z
    "/>
</svg>